<svg version="1.1" id="Layer_1" xmlns="http://www.w3.org/2000/svg" xmlns:xlink="http://www.w3.org/1999/xlink" x="0" y="0" viewBox="0 0 443.43 486.44" xml:space="preserve"><style>.st1{fill:#cfe8ff}.st13{fill:#58b4ff}.st14{fill:#2491ff}.st15{fill:#0076d6}.st16{fill:#005ea2}.st17{fill:#0b4778}.st21{fill:none}.st24{fill:#e8f5ff}.st26{fill:#cfe8ff}.st26,.st27,.st28{clip-path:url(#SVGID_2_)}.st28{fill:#58b4ff}</style><path d="M292.01 376.95l.54-2.74c-.45 1.73-.69 2.83-.54 2.74z" fill="none" stroke="#ffb62e" stroke-width="1.299" stroke-miterlimit="10"/><path class="st16" d="M329.26 83.67c-3.41-.46-110.46-20.97-123.58-23.53-1.03-.2-2.05-.41-3.08-.6-12.75-2.41-21.22 2.14-23.63 14.9L144 243c9.45 10.98 14.73 32.82-13.13 69.43l-.48 2.54-10.42 55.12c-2.33 12.31 5.42 24.16 17.43 27.14.43.11.86.23 1.3.31l84.16 14.1 37.32 6.25c4.34.82 8.61.37 12.47-1.06 1.82-.67 3.55-1.54 5.14-2.62-4.37-3.38-9.87-8.91-11.24-16.08-1.89-9.91 7.71-16.56 21.13-13.99 1 .19 1.91.39 2.8.59l1.53-7.79c-.15.1.09-1 .54-2.74l4.11-20.84c-4.08-6.34-15.29-26-.14-30.17.5-.13 1.02-.26 1.58-.36 1.69-.31 3.22-.43 4.65-.41l1.95-9.88 11.03-55.95s28.56-153.81 28.61-154.1c.79-4.28 1.77-9.71-1.38-13.32-3.15-3.58-8.42-4.78-13.7-5.5z"/><defs><path id="SVGID_38_" d="M282.62 403.31c-1.63 8.37-9.68 13.88-18.07 12.36L139.06 392.9c-9.28-1.68-15.38-10.63-13.56-19.88l59.4-302.34c1.13-5.75 6.71-9.5 12.46-8.36L335.9 88.2c4.88.91 8.07 5.63 7.11 10.49l-60.39 304.62z"/></defs><clipPath id="SVGID_2_"><use xlink:href="#SVGID_38_" overflow="visible"/></clipPath><path d="M144.76 304l.43-2.25-.84 1.11.41 1.14z" clip-path="url(#SVGID_2_)" fill="none"/><path class="st28" d="M282.62 403.31c-1.63 8.37-9.68 13.88-18.07 12.36L139.06 392.9c-9.28-1.68-15.38-10.63-13.56-19.88l59.4-302.34c1.13-5.75 6.71-9.5 12.46-8.36L335.9 88.2c4.88.91 8.07 5.63 7.11 10.49l-60.39 304.62z"/><g class="st27"><path d="M257.19 249.29c.12.06.23.13.36.19.07-.21.15-.42.22-.62l-.58.43z" fill="none" stroke="#2491ff" stroke-width="1.283" stroke-miterlimit="10"/><path class="st13" d="M253.34 251.88c-16.36 10.11-25.64 4.55-25.64 4.55-7.24-5.53-12.06-12.69-15.28-19.75l-2.04 5.88-2.33 6.72s1.19 5.06 5.06 9.53c1.36 1.57 2.34 2.66 3 3.78 1.2 2.06 1.25 4.21.28 9.62-.11.59-.22 1.1-.33 1.55-.33 1.29-.69 2.05-1.02 2.51-.13.34-.27.68-.43.99-.05.11-.12.21-.17.31-.13.25-.27.5-.42.73.18.49.47 1.2.89 2.23 2.68 6.55 19.65 14.59 24.12 17.87 1.91 1.4 5.02.4 7.91-1.43 1.13-.72 2.23-1.57 3.21-2.45 2.35-2.12 4.01-4.44 3.77-5.65-.37-1.83-2.54-4.8-3.73-8.4-.75-2.25-1.12-4.75-.43-7.38 1.15-4.4 5.13-15.94 7.82-23.62-.12-.07-.24-.13-.36-.19-1.35.97-2.64 1.83-3.88 2.6z"/><path class="st13" d="M227.69 256.43s9.28 5.56 25.64-4.55c1.25-.77 2.53-1.63 3.86-2.59.19-.14.38-.29.57-.43 2.41-1.79 4.95-3.88 7.62-6.39 1.6-1.5 3-3.21 4.17-5.07l5.48-8.67s-.6 6.55 1.79 5.06c2.38-1.49 13.7-18.76 11.61-24.12s-7.15 1.49-7.15 1.49-2.08-1.19-1.49-8.04c.6-6.85 4.17-11.24-5.66-16.97-7.15-4.17-2.9-13.52-6.25-18.16-4.66-6.45-13.17-6.86-19.06-3.57-10.12 5.66-27.69 1.49-27.69 1.49l-12.21 21.14s-6.55-5.96-6.25 1.79c.3 7.74 3.28 20.55 3.28 20.55s.14 13.46 6.46 27.3c3.22 7.05 8.04 14.21 15.28 19.74z"/><path class="st1" d="M272.72 311.71s-14.45 34.32.6 55.39-18.06 49.98-18.06 49.98 24.08 10.84 24.08 9.03c0-1.81 16.58-79.19 7.99-89.57s-14.61-24.83-14.61-24.83z"/><path class="st16" d="M257.31 240.6l-43.14-5.93s-19.36 11.3-11.16 25.69c10.91 19.15 54.3-9.74 54.3-9.74V240.6zM196.43 287.1l-13.48 101.88-1.41 10.68s-6.36-1.33-5.32-2.98c-.28.3-.78.8-1.48 1.29l41.67 13.07c.05-.35.14-1.11.29-2.22 1.98-14.9 12.63-93.01 19.63-100.28 6.47-6.72 11.47-10.52 13.82-14.03-3.47 3.14-8.47 5.86-11.14 3.9-4.47-3.28-21.44-11.32-24.12-17.87-.42-1.03-.71-1.74-.89-2.23-4.97 7.96-17.57 8.79-17.57 8.79z"/><path class="st17" d="M310.04 233.56c-5.64-8.95-9.04-15.8-11.14-21.67-2.83-7.92-3.26-14.09-3.58-21.31-.33-7.57-.52-16.3-3.18-29.43-7.07-34.95-30.12-24.79-30.12-24.79-47.94-27.6-59.34 16.88-60.18 32.28-.83 15.4-16.3 28.6-29.2 37.76-10.32 7.33-16.22 37.77-12.37 51.27 10.53-2.41 20.07-4.21 20.07-4.21s2.08-8.04 12.21-16.08c7.22-5.74 16.03-5.38 19.86-.69-6.32-13.85-6.46-27.3-6.46-27.3s-2.98-12.8-3.28-20.55c-.3-7.74 6.25-1.79 6.25-1.79l12.21-21.14s17.57 4.17 27.69-1.49c5.88-3.29 14.4-2.88 19.06 3.57 3.36 4.65-.89 14 6.25 18.16 9.83 5.73 6.25 10.12 5.66 16.97-.6 6.85 1.49 8.04 1.49 8.04s5.06-6.85 7.15-1.49-9.23 22.63-11.61 24.12c-2.38 1.49-1.79-5.06-1.79-5.06l-5.48 8.67a26.013 26.013 0 01-4.17 5.07c-2.67 2.5-5.21 4.6-7.62 6.39-.07.2-.14.41-.22.62 2.48 1.41 8.7 7.97 9.15 12.01 2.47 22.05 15.18 22.9 28.74 30.16 15.99-6.8 30.14-33.44 14.61-58.09z"/><path class="st24" d="M216.1 262.59c-.65-1.12-1.64-2.21-3-3.78-3.87-4.47-5.06-9.53-5.06-9.53l2.33-6.72 2.04-5.88c-3.83-4.69-12.63-5.05-19.86.69-10.12 8.04-12.21 16.08-12.21 16.08s-9.54 1.81-20.07 4.21c-12.11 2.77-25.52 6.34-27.28 8.89-2.6 3.78-13.42 70.21-17.8 97.61-1.15 7.17-1.85 11.67-1.85 11.67s.3 5.96 13.4-4.47c12.32-9.8 33.86-9.07 43.32-4.73.6.27 1.15.56 1.65.86 8.34 5.06 6.55 16.08 6.55 16.08l-1.79 2.08s.1.42.22 1.06c.47 2.41 1.42 8.25-.22 9.66-.12.1-.19.2-.26.3-1.04 1.65 5.32 2.98 5.32 2.98l1.41-10.68 13.48-101.88s12.6-.83 17.57-8.78c.15-.24.29-.48.42-.73.06-.11.12-.21.17-.31.16-.31.3-.65.43-.99.33-.46.69-1.23 1.02-2.51.12-.45.23-.96.33-1.55.98-5.42.94-7.57-.26-9.63zM282.78 281.44l-.86-.46c-13.56-7.26-9.97-6.95-15.22-19.49-3.09-7.38-6.67-10.6-9.15-12.01-2.7 7.68-6.67 19.22-7.82 23.62-.69 2.63-.31 5.13.43 7.38 1.2 3.6 3.37 6.57 3.73 8.4.24 1.2-1.41 3.52-3.77 5.65-.63.94-1.45 1.9-2.44 2.93-2.7 2.82-6.64 6.17-11.36 11.07-7 7.27-17.65 85.37-19.63 100.28-.15 1.11-.25 1.87-.29 2.22l4.38 1.37 2.07.53 11.55 2.98 53.45 13.81 22.04-108.69c-2.39-20.83-12.52-31.85-27.11-39.59z"/><path class="st13" d="M99.68 435.86c-2.54 12.48 5.92 21.47 18.46 23.73l141.46 25.33c15.19 2.74 19.3-8.95 22.23-24.1l6.02-31.08-53.45-13.81-11.23-2.77 2.94 1.97 11.11 7.46-24.33 1.51c1.87 1.69 3.23 3.02 3.35 3.36l-28 2.33-3.27-3.96-24.28 1.51-53.86-28.11 2.96-14.96"/><path class="st1" d="M226.11 415.13l-2.94-1.97-2.39-.75s-3.05-.85-4.06-1.22l-2.34-.79-39.65-12.44c-1.34.95-2.41.71-5.01.22 0 0-2.56 1.58-6.76.33-5.96-1.79-8.37-5.42-15.81-7.51-7.44-2.08-14.75 4.19-21.9 4.19-6.33 0-13.58.69-14.75-7.41l-1.26-.35-2.41 11.8 53.86 28.11 24.28-1.51-4.12-4.99 24.41-2.89s3.17 2.08 7.64 6.14l24.33-1.51-11.12-7.45z"/><path class="st17" d="M212.89 424.1c-4.47-4.06-7.64-6.14-7.64-6.14l-24.41 2.89 4.12 4.99 3.27 3.96 28-2.33c-.1-.35-1.47-1.67-3.34-3.37z"/><path d="M110.29 383.93l-5.96 29.29c2.06.35 3.3.39 5.31.31 8.9-.37 16.82-5.25 25.37-7.24 4.14-1.46 8.91-2.74 14.46-3.75 16.38-2.98 36.95-.46 52.08 2.38l-91.26-20.99z" opacity=".28" fill="#2491ff"/><defs><path id="SVGID_40_" d="M171.71 367.5c-.5-.3-1.05-.59-1.65-.86-9.46-4.33-30.99-5.07-43.32 4.73-13.1 10.42-13.4 4.47-13.4 4.47s.71-4.51 1.85-11.67c-1.88 4.8-4.5 11.53-4.87 18.96-.07 1.37.03 3.61.18 4.66 1.17 8.1 11.22 8.84 17.45 9.98 6.62 1.22 8.98 1.81 16.87-2.19 2.76-1.4 12.05 4.29 13.93 4.86 4.2 1.26 9.65 2.56 10.81-.22.48-1.16.45-.54.45-.54 2.6.49 3.39-.76 4.73-1.71.7-.49 1.2-.99 1.48-1.29.06-.1.12-.22.26-.3 3.38-1.9.7-7.24.22-9.66-.13-.65-.22-1.06-.22-1.06l1.79-2.08c-.01 0 1.78-11.02-6.56-16.08z"/></defs><clipPath id="SVGID_3_"><use xlink:href="#SVGID_40_" overflow="visible"/></clipPath><path d="M171.71 367.5c-.5-.3-1.05-.59-1.65-.86-9.46-4.33-30.99-5.07-43.32 4.73-13.1 10.42-13.4 4.47-13.4 4.47s.71-4.51 1.85-11.67c-1.88 4.8-4.46 12.58-4.83 20.01a18.7 18.7 0 00.14 3.61c1.17 8.1 11.22 8.84 17.45 9.98 6.62 1.22 8.98 1.81 16.87-2.19 2.76-1.4 12.05 4.29 13.93 4.86 4.2 1.26 6.35 1.68 9.26.96 1.63-.4 2-1.71 2-1.71 2.6.49 3.39-.76 4.73-1.71.7-.49 1.2-.99 1.48-1.29.06-.1.12-.22.26-.3 3.38-1.9.7-7.24.22-9.66-.13-.65-.22-1.06-.22-1.06l1.79-2.08c-.01-.01 1.78-11.03-6.56-16.09z" clip-path="url(#SVGID_3_)" fill="#e8f5ff"/><path d="M168.7 401.08c-7.18 1.12-9.98-2.8-16.23-6.34-2.22-1.26-4.9-1.42-7.46-1.49-1.29-.04-8.2 2.25-15.77 1.92-9.16-.41-19.28-3.46-21.5-3.64 1.49 2.53 3.58 2.17 6.26 3.86 4.67 2.95 10.46 4.29 15.65 6.02 5.69 1.89 9.82 1.44 15.93.7 4.35-.53 12.19-.1 15.59 3.78 1.14 1.3 3.37 1.17 4.54 0 1.28-1.3 4.71-5.08 2.99-4.81z" clip-path="url(#SVGID_3_)" fill="#58b4ff"/><path class="st21" d="M247.69 297.47c.99-1.03 1.81-2 2.44-2.93-.98.88-2.08 1.73-3.21 2.45.26.16.51.31.77.48z"/><g><path class="st1" d="M196.43 287.1l-11.7-5.03s-5.44-27.32-3.72-30.28l-2.46 2.31.86 30.97 16.63 4.66.39-2.63z"/></g><path class="st1" d="M271.59 274.36s-6.43 22.91-11.46 23.19c-5.03.28-7.4-8.01-7.4-8.01l-1.12 3.4s8.8 11.6 10.62 9.22c1.82-2.38 12.01-26.4 12.01-26.4l-2.65-1.4z"/><path class="st1" d="M259.77 295.17s-12.3-18.97-7.04-22.8 7.04 22.8 7.04 22.8zM281.35 344.22s-17.17 75.56-8.24 81.4l-38.71-9.69s-.1-7.14 16.73-7.48c16.83-.34 15.11-29.54 10.3-32.63s7.21-17.86 10.99-21.64c3.78-3.78 9.62-25.42 9.62-25.42l-.69 15.46z"/><path class="st24" d="M144.08 361.04s-17.73 7.04-21.96 8.73c-4.22 1.69 7.88-5.07 10.7-10.42 2.81-5.35-10.98-.84-11.26-5.91-.28-5.07 1.13-17.45 1.13-17.45l3.54 6.69s8.28 16.67 17.85 18.36z"/><path class="st1" d="M138.65 338.75s-2.81-18.3.84-32.65 3.1-12.95 3.1-12.95"/><path class="st24" d="M141.76 362.55s-13.34 14.32-20.75 23.62c-3.17 3.98-10.16 1.83-9.27 5.3 0 0 9.5 9.89 9.93 6.84.66-4.64 23.91-38.98 30.48-36.85l-10.39 1.09z"/><path class="st24" d="M155.66 364.09s-1.61.56-3.87 1.69c-.54.27-1.12.57-1.72.9-2.03 1.12-4.33 2.6-6.42 4.44-7.97 7.01-15.66 17.25-15.79 16.59-.22-1.1 17-23.62 17-23.62s8.15-1.77 10.8 0z"/></g><path class="st26" d="M193.47 281.43c14.16-2.27 22.43-27.6 22.38-16.43-.05 11.18-1.51 16.45-21.24 20.39-3.33.67-1.14-3.96-1.14-3.96z"/><circle cx="170.44" cy="336.54" r="9.74" clip-path="url(#SVGID_2_)" fill="#0b4778"/><path d="M255.6 244.55c5.13 23.32 3.51 53.85 4.7 76.95 1.04 20.35-11.83 40.95 2.58 48.03M287.33 336.54c2.09-7.17-.48-14.86-1.76-22.56-6.41-20.53-16.61-46.76-27.81-65.12" clip-path="url(#SVGID_2_)" fill="none" stroke="#0b4778" stroke-width="2.566" stroke-miterlimit="10"/><path d="M283.23 400.62c0-2.56 22.56-71.26-8.2-68.7-30.76 2.56-.51 74.34-.51 74.34M212.41 236.68s-48.31 21-42.99 91.14" clip-path="url(#SVGID_2_)" fill="none" stroke="#0b4778" stroke-width="2.566" stroke-miterlimit="10"/><circle cx="170.71" cy="335.26" r="6.66" clip-path="url(#SVGID_2_)" fill="#005ea2"/><circle cx="170.19" cy="330.57" r="6.66" clip-path="url(#SVGID_2_)" fill="#0b4778"/><ellipse cx="283.23" cy="400.62" rx="3.13" ry="4.17" clip-path="url(#SVGID_2_)" fill="#005ea2"/><ellipse cx="274.12" cy="407.57" rx="3.13" ry="4.17" clip-path="url(#SVGID_2_)" fill="#005ea2"/><path class="st26" d="M227.69 256.43s9.28 5.56 25.64-4.55c1.25-.77 2.53-1.63 3.86-2.59.19-.14.38-.29.57-.43 2.41-1.79 4.95-3.88 7.62-6.39 1.6-1.5 3-3.21 4.17-5.07l5.48-8.67s-.6 6.55 1.79 5.06c2.38-1.49 13.7-18.76 11.61-24.12s-7.15 1.49-7.15 1.49-2.08-1.19-1.49-8.04c.6-6.85 4.17-11.24-5.66-16.97-7.15-4.17-2.9-13.52-6.25-18.16-4.66-6.45-13.17-6.86-19.06-3.57-10.12 5.66-27.69 1.49-27.69 1.49l-12.21 21.14s-6.55-5.96-6.25 1.79c.3 7.74 3.28 20.55 3.28 20.55s.14 13.46 6.46 27.3c3.22 7.05 8.04 14.21 15.28 19.74z"/><g class="st27"><path class="st13" d="M245.46 165.87c.35-.12.69-.24 1.03-.37-.34.13-.68.26-1.03.37zM247.78 164.95c.36-.17.71-.35 1.05-.54-.34.2-.69.38-1.05.54zM246.66 165.44zM244.22 166.24c.39-.11.78-.22 1.17-.35-.39.13-.78.25-1.17.35z"/><path class="st1" d="M246.49 165.5c.05-.02.11-.04.17-.06-.06.02-.11.04-.17.06zM245.39 165.9zM247.56 165.05c.07-.03.15-.06.22-.1-.07.04-.14.07-.22.1z"/><path class="st13" d="M288.44 209.68c-2.08-5.36-7.15 1.49-7.15 1.49s-2.08-1.19-1.49-8.04c.6-6.85 4.17-11.24-5.66-16.97-7.15-4.17-2.9-13.52-6.25-18.16-2.08-2.88-4.93-4.55-7.97-5.23v.09c.03 4.28-.98 8.5-2.78 12.37-2.09 4.49-5.97 8.13-8.88 12.18-3.32 4.62-3.71 8.96-4.68 14.38-1.3 7.22-1.65 13.61.3 17.95 1.51 3.37-6.32 3.66-4.79 5.39l-2.91 8.32c-.52 1.02-.46 2.24.15 3.21l.44.56s-5.21 4.82-2.48 5.52c1.14.29 5.79 10.09-1.29 14.72 5.12 2.02 17.57-.84 32.4-14.97 1.59-1.51 3-3.21 4.17-5.07l5.48-8.67s-.6 6.55 1.79 5.06c2.37-1.5 13.68-18.77 11.6-24.13zm-19.56-1.93c-6.21 3.17-13.05 1.4-16.06-1.44-.69-.65-1.63-.45-1.72-.61-.49-.84 1.64-1.55 2.37-2.09 4.25-3.09 10.43-.97 14.27 1.79 1.41 1.01 2.67 1.57 1.14 2.35z"/></g><path d="M276.43 225.87s2.23-2.04 3.09-4.86c.73-2.38.03-5.48.66-6.63 1.82-3.29 5.5-5.85 5.28-1.32-.38 7.98-5.63 14.01-7.15 15.15-1.51 1.14-1.88-2.34-1.88-2.34z" clip-path="url(#SVGID_2_)" fill="#005ea2"/><path class="st28" d="M206.29 190.05c0-.43-1.43-3.43-2.43-1.57-1 1.86.71 11.58.71 11.58l1.72-10.01z"/><g class="st27"><path class="st17" d="M272.34 196.53c-4.14-2.15-10.97-2.7-14.28-2.54-3.3.16-4.61 1.89-4.54 2.31.08.42 2.62.92 4.11.52 1.49-.4 6.32-.64 8.49-.46 2.13.17 5.4.86 6.46 1.48 1.06.63 3.92 3.46 3.92 3.46s-2.06-3.68-4.16-4.77zM270.31 207.78c.11-.35-1.23-1.92-2.97-3.31-1.8-1.44-4.01-2.7-4.29-2.84-.03-.01-.06-.03-.08-.04 2.37.41 4.31 1.08 6.08 2.02-6.71-5.24-14.44-4.05-17.42-.62 0 0 2.97-1.29 4.59-1.26-3.04 1-4.66 2.89-5.16 3.55-.1.13-.08.32.05.43.73.6 3.22-3.04 6.45-2.98-.45.6-.74 1.34-.78 2.19-.09 1.55.8 3.05 2.19 3.74 2.3 1.13 4.93-.12 5.6-2.46.19-.65.2-1.3.07-1.92.44.27 1.3.55 2.12 1.09 1.61 1.06 3.37 2.51 3.55 2.41zM220.46 186.91c4.24-.66 10.31 1.08 13.11 2.32 2.8 1.24 3.38 3.31 3.19 3.68-.2.37-2.54 0-3.71-.87-1.16-.87-5.25-2.69-7.17-3.24-1.89-.54-4.93-.98-6.04-.74-1.11.24-4.46 1.97-4.46 1.97s2.93-2.78 5.08-3.12zM220.56 197.9c.95-.24 1.85-.21 2.36-.32a3.98 3.98 0 003.87 6.03c1.54-.18 2.88-1.3 3.32-2.78.24-.81.22-1.61 0-2.32 3.06 1.03 4.19 5.29 5.08 4.97.16-.06.24-.22.19-.38-.24-.79-1.14-3.11-3.67-5.08 1.54.52 3.9 2.73 3.9 2.73-1.65-4.23-7.06-8.1-15.14-5.42 1.98-.3 2.56-.11 4.93.3-.03 0-.06.01-.09.01-.31.04-2.81.48-4.99 1.24-2.1.73-3.01 1.74-3.03 2.11.14.14 1.39-.63 3.27-1.09zM235.58 222.91c.73.63.69.47 1.28.6-1.43-.56-.64-1.02-1.52-1.48-1.38-.72-2.56-.12-2.56-.12s.78-.14 1.39.33c.05.49.82.98 1.41.67zM244.66 224.41c.75-.2 1.41.24 1.41.24s-.85-1.02-2.4-.9c-.99.08-1.53.92-3.06.87.6.12 1.57.14 2.5-.16.42.53 1.32.38 1.55-.05z"/><path class="st21" d="M267.75 205.41c-3.84-2.76-10.02-4.88-14.27-1.79-.74.54-2.87 1.25-2.37 2.09.09.16 1.03-.04 1.72.61 3 2.84 9.85 4.61 16.06 1.44 1.52-.79.26-1.35-1.14-2.35z"/><path class="st16" d="M248.88 236.64c-1.33-1.08-5.3-3-7.85-3.7-2.1-.58-3.03.09-3.89-.09-.2-.04-.42-.14-.66-.26-.78-.4-1.81-1.12-3.46-1.38-3.09-.49-6.26.49-8.73.87-.46.07-.72.59-.48.99.6 1 2.59 4.39 4.9 6.68 1.25 1.24 3.12 2.16 4.42 2.71.39.16.85.29 1.31.38.58.11 1.16.17 1.65.13 1.35-.09 3.44-.35 5.36-1.06 2.62-.97 6.53-3.24 7.37-3.8.51-.35.54-1.08.06-1.47z"/></g><path class="st28" d="M230.39 222.47s-1.35-4.87 1.62-6.5c0 0-1.02 2.34-1.15 3.18-.12.76.12 3.06.12 3.06l-.59.26z"/><path d="M248.88 236.64c-1.33-1.08-5.3-3-7.85-3.7-2.1-.58-3.03.09-3.89-.09-.2-.04-.42-.14-.66-.26 2.66 1.38-.25 3.83-.4 5.19-.2 1.82.89 3.11-.96 4.46-.24.18-.51.35-.83.5.04.01.1.06.15.1.58.11 1.16.17 1.65.13 1.35-.09 3.44-.35 5.36-1.06 2.62-.97 6.53-3.24 7.37-3.8.51-.35.54-1.08.06-1.47z" clip-path="url(#SVGID_2_)" fill="#0b4778"/><path d="M197.02 400.54c-2.2.82-31.05 4.95-31.05 4.95" clip-path="url(#SVGID_2_)" fill="none" stroke="#0b4778" stroke-width="1.283" stroke-miterlimit="10"/><path clip-path="url(#SVGID_2_)" fill="#0b4778" d="M301.32 424.14l-193.08-34.03 8.13-46.1 191.11 37.11z"/><ellipse cx="204.54" cy="382.02" rx="15.44" ry="15.35" clip-path="url(#SVGID_2_)" fill="#2491ff"/><circle cx="204.16" cy="381.41" r="14.8" clip-path="url(#SVGID_2_)" fill="#005ea2"/><path class="st14" d="M303.94 390.59s-2.46-3.32-13.47-5.86c-.88-.2-1.8-.4-2.8-.59-13.42-2.57-23.02 4.08-21.13 13.99 1.37 7.18 6.87 12.71 11.24 16.08a23.707 23.707 0 01-5.14 2.62 23.303 23.303 0 01-12.47 1.06l-37.32-6.25-84.16-14.1c-.44-.08-.87-.21-1.3-.31-12.01-2.98-19.75-14.83-17.43-27.14l10.42-55.12-.47-1.29c.33-.42.64-.83.95-1.25 27.86-36.6 22.58-58.44 13.13-69.43-3.57-4.15-5.03-7.74-10.94-8.02-11.52-.54-18.9 44.94-44.08 75.59-7.71 9.38-16.18 31.18-23.93 46.63-11.35 22.63-16.39 47.43-16.82 64.19-.72 28.19-40.48 65.64-40.48 65.64s159.43.92 164.5 0c5.07-.92 37.32-21.66 53.45-37.78s28.57-11.52 63.58-22.12c35.02-10.6 14.67-36.54 14.67-36.54zM339.71 271.91c-.7-15.49-20.09-15.47-23.98-15.31l-11.03 55.95c9.04-6.36 35.66-26.33 35.01-40.64zM302.75 322.43c-1.43-.02-2.97.1-4.65.41-17.49 3.22-5.66 23.98-1.45 30.53l-4.11 20.84-.54 2.74c4.82-3.07 25.15-16.4 26.12-23 1.02-6.94 2.58-31.31-15.37-31.52z"/><path class="st13" d="M128.46 238.04s10.31 3.52 10.31 9.54-14.78 18.61-16.42 18.61c-1.64 0-5.21-3.35-5.35-5.21-.51-6.39 11.46-22.94 11.46-22.94z"/><g><path class="st21" d="M129.65 313.37l.47 1.29-1.12 5.94c3.85-5.1 7.14-8.81 9.21-10.34 3.81-2.8 6.03-11.83 7.32-22.45-3.27 7.26-8.1 15.34-14.93 24.32-.32.41-.63.82-.95 1.24z"/><path class="st15" d="M99.97 400.81c18.01 12.78-17.46 80.57 53.82 43.75 82.25-42.49 129.17-22.83 129.17-22.83s-3.15-3.28-6.58-7.09c-1.27.76-2.61 1.39-4.01 1.9a23.303 23.303 0 01-12.47 1.06l-37.32-6.25-84.16-14.1c-.44-.08-.87-.21-1.3-.31-12.01-2.98-19.75-14.83-17.43-27.14l9.3-49.18c-16.6 21.97-43.64 69.81-29.02 80.19zM304.43 312.25l18.61-54.92-7.01-1.04c-.22.01-.42.01-.58.02l-11.02 55.94zM296.12 354.39l-2.13 10.85 9.3-3.35z"/></g><path class="st13" d="M297.23 323.4s10.5 13.3 10.11 23.39c-.04.96 1.63.75 1.68-.21.04-.88.07-1.93.07-3.2.01-8.74-3.11-19.98-11.86-19.98zM287.68 384.14s8.92 9.91.69 17.83l6.86-2.16s2.51-10.96 1.1-12.37c-1.42-1.4-8.65-3.3-8.65-3.3z"/><g><path class="st17" d="M317.58 124.11c-.58-.22-1.29-.38-1.94-.41-.64-.03-1.14.24-1.78.09 0 0-.18 1.17.25 1.23.42.05-.26 1.35-.26 1.35l-.13.05c1.5-.03 2.85-1.15 3.93-1.97.14-.11.11-.27-.07-.34z"/><path d="M314.11 125.02c-.13-.15-.71-.43-.66-.69.06-.29.41-.54.41-.54-.65-.15-1.3-.25-2.03-.12-.21.04-1.47.41-1.27.66.77.97 1.12 1.9 2.77 2.08.13.01.26.01.38 0l.13-.05s-.25-.11-.43-.57c-.18-.48.86-.6.7-.77z" fill="#112f4e"/></g><g><defs><path id="SVGID_42_" d="M315.97 179.74l-40.7-7.55a5.368 5.368 0 01-4.3-6.25l12.68-68.37a5.368 5.368 0 016.25-4.3l40.7 7.55c2.91.54 4.84 3.34 4.3 6.25l-12.68 68.37a5.368 5.368 0 01-6.25 4.3z"/></defs><clipPath id="SVGID_5_"><use xlink:href="#SVGID_42_" overflow="visible"/></clipPath><path d="M315.97 179.74l-40.7-7.55a5.368 5.368 0 01-4.3-6.25l12.68-68.37a5.368 5.368 0 016.25-4.3l40.7 7.55c2.91.54 4.84 3.34 4.3 6.25l-12.68 68.37a5.368 5.368 0 01-6.25 4.3z" clip-path="url(#SVGID_5_)" fill="#cfe8ff"/><g clip-path="url(#SVGID_5_)"><path class="st14" d="M309.98 146.81c-.15.11-.3.19-.45.29 0 .03.01.06.01.09 0 0-8.36 11.06-14.69 7.76-2.88-1.5-4.56-2.83-5.55-3.83-2 1.08-3.88 1.55-3.88 1.55s-1.27 5.54-.87 6.33 18.24 11.68 23.78 12.95c5.54 1.27 15.1-7.83 15.1-7.83-2.76-.58-5.69-3.97-8.11-7.6-.35-.52-.68-1.05-1.01-1.57-2.54-4.17-4.33-8.14-4.33-8.14z"/><path class="st14" d="M309.55 147.19c0-.03-.01-.06-.01-.09l-.09.06.1.03zM293.82 142.87z"/><path class="st16" d="M309.55 147.19c-1.4 1.16-6.33 5.12-11.16 2.67-1.43-.72-3.28-2.74-4.36-4.57-.3 2.8-2.58 4.67-4.72 5.83.99 1 2.67 2.33 5.55 3.83 6.32 3.3 14.69-7.76 14.69-7.76z"/><path class="st14" d="M314.98 133.15c-1.99-6.82-4.21-10-3.76-12.25.45-2.25-.1-5.48-.1-5.48s-.06 7.9-9.06 8.38c-9 .48-10.17 4.51-9.42 6.99.75 2.48 4.47 10.78 1.19 12.09.23.87.28 1.67.2 2.41 1.08 1.83 2.93 3.85 4.36 4.57 2.87 1.46 5.78.65 7.96-.49 1.49-.78 2.64-1.71 3.2-2.18l-.1-.03.09-.06c-.22-1.62 1.66-3.08 1.66-3.08s5.76-4.05 3.78-10.87z"/><path d="M302.36 146.08c-.95.1-1.37-.13-1.37-.13 1.37.13.78-2 .78-2 1.11-1.03.41-1.19.41-1.19s.87-.8.28-1.99c-.07-.14-1.29-.67-1.2-2.09 0-.02.01-.05.02-.07a.526.526 0 01.02-.37c.32-.67.74-1.28 1.07-1.94.34-.67.39-1.33.42-2.07.05-1.21-.51-2.36-.32-3.64.26-1.79 1.43-2.81 2.66-3.98 1.44-1.37 2.38-3.07 3.08-4.94.77-2.06 1.22-4.26 1.33-6.46-2.83 1.9-8.05 6.67-8.4 5.79-4.37 1.09-9.15 2.4-10.2 3.17-2.02 1.48 1.6 11.03 1.6 11.03s.09 1.31.36 3.32c.39.06.78.42.66.92-.27 1.1-.19 2.22.3 3.24.46.95-1.44 3.09-.74 3.86 1.39 1.52 4.56 5.11 7.06 4.97.04-.72.65-3.63 1.01-4.29.26-.46 2.12-1.24 1.17-1.14zm-1.21-13.39c-.21.33-1.02.17-1.04.16-.02 0-2.02-.14-2.96-.44l-.09-.03c-.25-.12-.86-.55-.85-.83.01-.29.73-.46 1.03-.5.62-.08 1.25-.13 1.87-.03.67.1 1.28.33 1.85.69.33.2.38.66.19.98z" opacity=".43" fill="#005ea2"/><path class="st15" d="M320.03 162.97s-10.41 8.14-18.93 3.63c-8.52-4.51-15.16-14.67-15.16-14.67l-13.49 4.14-3.97 16.82 54.91 8.54 2.58-18.53-5.94.07z"/><g><path class="st17" d="M297.46 127.37c1.4-.21 2.94.57 3.86.98.93.41.84.8.77.92-.07.12-.57.3-.95.01s-1.74-.74-2.38-.92c-.63-.18-1.52-.19-1.89-.12-.37.08-1.58.35-1.58.35s1.46-1.11 2.17-1.22zM296.86 131.36c.31-.08.61-.08.78-.11a.94.94 0 00-.16.52c0 .69.77 1.12 1.6 1.02.5-.07.87-.28.99-.7.06-.23.04-.45-.05-.65.72.4 1.49 1.45 1.77 1.35.05-.02-.38-.97-1.25-1.5.52.13 1.04.48 1.04.48-.63-1.17-2.94-2.11-4.35-1.23.65-.1.91-.06 1.18.14h-.03c-.1.01-.92.17-1.63.4-.68.23-.65.44-.65.55.06.03.15-.12.76-.27zM311.39 130.67c-1.18-.79-2.9-.74-3.91-.76s-1.1.37-1.09.51.38.51.86.41 1.89.08 2.55.18c.64.1 1.45.47 1.75.7.3.23 1.28.99 1.28.99s-.84-1.63-1.44-2.03zM311.3 135.06c.04-.1.14-.29-.43-.74-.58-.46-1.3-.89-1.39-.93-.01 0-.02-.01-.03-.01.33-.1.58-.05 1.16.27-1.03-1.31-3.52-1.23-4.51-.34 0 0 .61-.15 1.14-.09-1 .19-1.74.94-1.69.98.24.19 1.32-.53 2.13-.65-.15.16-.25.36-.27.6-.04.44.27.71.72.95.75.39 1.59.29 1.82-.35.06-.18.07-.36.03-.54.14.09.42.2.69.37.53.33.57.5.63.48zM307.03 143.26c-.73-.28-1.61-.48-2.42-.51-.8-.04-1.42.3-2.23.12-.81-.19-1.62-.31-2.53-.15-.26.05-1.84.51-1.59.83.97 1.22 1.4 2.37 3.46 2.6 2.06.23 3.93-1.34 5.38-2.45.19-.16.15-.36-.07-.44zM304.27 140.03c-.22.23-.51.38-.84.41.1.02.22.07.42.01.02-.01.51.11.6-.34.24-.07.86.22.86.22s-.6-.52-1.04-.3zM301.5 139.65c.19.26.45.44.78.52-.1.01-.23.04-.42-.05-.02-.01-.52.04-.55-.42-.23-.11-.88.1-.88.1s.67-.43 1.07-.15z"/></g><path class="st17" d="M313.57 123.91s1.98 10.7-1.18 15.99c-1.19 2 7.31-9.43 7.33-9.83s-6.15-6.16-6.15-6.16z"/><path class="st17" d="M327.29 133.77c-.32-2.64-1.25-4.62-2.51-6.66-.41-.66-.85-1.33-1.32-2.04-1.8-2.7-.54-5.89-.09-8.85 1.06-6.92-9.3-4.64-9.3-4.64s-1.95-7.03-9.68-7.39c-7.73-.35-6.51 6.57-7.03 7.6-.46.9-3.58.66-4.37.7-2.81.12-6.38.21-8.58 2.2-1.97 1.79-2.78 4.63-2.85 7.21-.04 1.52.1 3.21.84 4.55.78 1.42 2.33 2.57 1.93 4.38-.29 1.31-1.68 2.21-2.34 3.36-.86 1.48-1.34 3.17-1.55 4.87-.32 2.53-.45 5.87.59 8.25.95 2.16 2.89 3.01 4.94 1.74 1.05-.65 1.3-2.43 2.18-2.93 1.23-.7 2.82.02 4.13.2 3.68.51 3.1-3.79 2.84-6.16 0-3.04-1.98-7.65-2.51-9.39-.75-2.48.42-6.51 9.42-6.99 9-.48 9.61-5.15 9.16-2.9-.45 2.25 1.77 5.44 3.76 12.25 1.49 5.11-1.34 8.03-2.84 9.17-.71.53-1.32 1.19-1.74 1.96-.49.89-.97 2.03-.84 2.91.24 1.64.79 3.6 2.07 4.9 2.57 2.6 4.62-.91 4.79-3.49.17-2.57 7.95-2.81 9.99-6.34 1.38-2.34 1.22-5.88.91-8.47z"/></g></g><g><circle class="st1" cx="103.6" cy="91.65" r="33.76"/><path class="st14" d="M112.04 83.31c.17-.01.34-.03.51-.03.07 0 .13.01.2.01l.06-2.53-.77 2.55zM113.68 104.08l.45-.9c-.14.1-.29.2-.43.3l-.02.6zM74.62 89.57c-.05.29 8.24 2.03 12.8 2.97-.12-.44-.23-.88-.3-1.32l-12.5-1.65zM131.71 98.53l-11.14-2.36c-.18.4-.38.79-.61 1.18l11.75 1.18z"/><path class="st14" d="M112.82 80.76l-.06 2.53c.5 0 .98.04 1.45.11l.2-7.93a.714.714 0 00-.6-.73h-.01c-.36-.06-.7.16-.81.5l-2.52 8.25c.51-.09 1.04-.14 1.57-.17l.78-2.56zM114.13 103.18l-.45.9.02-.6c-.49.33-.98.65-1.48.96l-.07 2.89c-.01.34.22.64.55.72.02 0 .03.01.05.01.32.06.63-.1.78-.39l3.27-6.61c-.84.75-1.73 1.45-2.67 2.12z"/><path class="st14" d="M92.47 87.97c.16-.26.48-.38.77-.32.3.06.52.31.56.61l1.21 8.69 2.38-4.13c.15-.27.46-.39.76-.35l9.06 1.72 3.27-10.7c-2.25.39-4.23 1.25-5.33 1.81-1.04-1.27-3.02-3.32-5.66-4.4-3.01-1.22-6.29-1.04-8.59.54-2 1.37-3.28 3.64-3.79 6.72-.18.99-.16 2.02.02 3.07l3.01.4 2.33-3.66zM116.79 101.06c1.28-1.15 2.38-2.39 3.17-3.71l-1.28-.13-1.89 3.84z"/><path class="st14" d="M112.56 83.28c-.17 0-.34.02-.51.03l-3.64 11.92c-.11.35-.47.56-.83.5l-9.19-1.74-3.17 5.52c-.15.27-.46.39-.77.35-.3-.06-.54-.3-.58-.61l-1.23-8.84-1.54 2.4c-.16.25-.45.37-.74.32 0 0-1.2-.24-2.93-.6 2.04 7.29 10.66 15.04 12.68 16.78l.68.59.85-.31c1.53-.57 6.19-2.4 10.59-5.15l.54-21.15c-.08 0-.15-.01-.21-.01zM114.13 103.18l3.5-7.07c.14-.28.45-.44.76-.4l2.19.46c.27-.62.48-1.24.59-1.89.6-3.12.2-5.69-1.17-7.64-1.25-1.78-3.33-2.91-5.79-3.25l-.51 20.08c.14-.09.28-.19.43-.29z"/></g><g><circle class="st1" cx="74.12" cy="185.75" r="33.76"/><path class="st14" d="M90.04 166.18l-13.25-2.38-.24 1.32 1.38.25-6.86 38.2h.01c-.01.03-.02.06-.02.1-.38 2.12 1.69 4.26 4.63 4.79 2.93.53 5.62-.76 6-2.88.01-.03.01-.07.01-.1h.01l6.86-38.2 1.25.22.22-1.32zm-5.96 17.35l-5.31-.95-3.74 20.82-1.38-.25 3.74-20.82-1.05-.19 2.97-16.52 7.74 1.39-2.97 16.52z"/><path class="st14" d="M64.48 170.29l1.15.21-5.7 31.76h.01c-.01.03-.02.05-.02.08-.32 1.76 1.42 3.54 3.88 3.99 2.46.44 4.71-.63 5.02-2.39 0-.03.01-.06.01-.08h.01l5.7-31.76 1.04.19.2-1.1-11.1-1.99-.2 1.09zm6.33 15.32l-4.45-.8-3.11 17.31-1.15-.21 3.11-17.31-.88-.16 2.47-13.74 6.48 1.16-2.47 13.75z"/></g><g><circle class="st1" cx="387.85" cy="231.76" r="33.76"/><path class="st14" d="M403.26 217.12a9.665 9.665 0 00-6.99-2.99c-2.49 0-4.84.94-6.64 2.64l-16.84 16.01c-3.85 3.66-4.01 9.77-.34 13.62 1.8 1.9 4.35 2.99 6.99 2.99 2.49 0 4.84-.94 6.64-2.64l16.84-16.01c3.85-3.66 4-9.77.34-13.62zm-18.68 28.07a7.449 7.449 0 01-5.15 2.05c-2.08 0-4-.82-5.42-2.31-2.84-2.99-2.72-7.73.27-10.57l7.83-7.44.71.71c2.5-2.32 6.38-5.91 8.65-8.02.44-.41 1.12-.38 1.53.06.41.44.38 1.12-.06 1.53-3.08 2.86-6.66 6.17-8.6 7.97l8.32 8.36-8.08 7.66z"/><path fill="none" stroke="#cfe8ff" stroke-width="2.231" stroke-linecap="round" stroke-linejoin="round" stroke-miterlimit="10" d="M398.53 220.12l-3.43 3.43"/></g><g><circle class="st1" cx="405.83" cy="128.21" r="33.76"/><path class="st14" d="M426.92 124.58c-1.97 0-3.56 1.6-3.56 3.56v.05l-7.07.49c-.05-1.17-.29-2.29-.68-3.33l3.16-1.59c.26.32.65.53 1.09.53.78 0 1.41-.63 1.41-1.41s-.63-1.41-1.41-1.41-1.41.63-1.41 1.41c0 .04.01.07.01.11l-3.18 1.59c-.51-1.1-1.2-2.1-2.02-2.96l4.16-3.58c.48.4 1.09.64 1.76.64 1.54 0 2.8-1.25 2.8-2.8 0-1.54-1.25-2.8-2.8-2.8a2.802 2.802 0 00-2.34 4.34l-4.2 3.61c-.65-.58-1.35-1.08-2.12-1.5l3.74-10.33a2.802 2.802 0 003.42-2.73c0-1.54-1.25-2.8-2.8-2.8-1.54 0-2.8 1.25-2.8 2.8 0 1.03.57 1.93 1.4 2.41l-3.72 10.28a10.72 10.72 0 00-3.97-.9v-6.06c.81-.19 1.41-.91 1.41-1.77a1.83 1.83 0 00-3.66 0c0 .86.6 1.59 1.41 1.77v6.06c-1.8.07-3.48.56-4.96 1.4l-5.34-7.35c.66-.57 1.08-1.4 1.08-2.34 0-1.72-1.39-3.11-3.11-3.11s-3.11 1.39-3.11 3.11 1.39 3.11 3.11 3.11c.48 0 .93-.12 1.33-.31l5.32 7.33c-1 .67-1.87 1.51-2.59 2.46l-3.1-2.26a1.408 1.408 0 00-1.25-2.06c-.78 0-1.41.63-1.41 1.41a1.408 1.408 0 002.06 1.25l3.22 2.34c-.63.98-1.11 2.06-1.41 3.22l-6.17-1.81a2.329 2.329 0 00-2.33-2.28c-1.29 0-2.33 1.04-2.33 2.33a2.326 2.326 0 004.52.78l6.13 1.8c-.11.62-.17 1.24-.17 1.89 0 .52.05 1.03.12 1.53l-8.13 1.68c-.47-.89-1.39-1.5-2.46-1.5-1.54 0-2.8 1.25-2.8 2.8 0 1.54 1.25 2.8 2.8 2.8 1.54 0 2.8-1.25 2.8-2.8 0-.17-.02-.34-.05-.5l7.99-1.65c.24 1.08.64 2.1 1.17 3.04l-4.09 2.2c-.24-.18-.53-.3-.86-.3-.78 0-1.41.63-1.41 1.41 0 .78.63 1.41 1.41 1.41s1.41-.63 1.41-1.41c0-.15-.03-.29-.07-.42l4.04-2.18c.43.63.92 1.21 1.46 1.74-3.38 3.15-5.03 4.71-5.85 5.48-.29-.19-.63-.3-1-.3a1.83 1.83 0 101.83 1.83c0-.34-.1-.65-.26-.92 1.18-1.12 3.67-3.45 5.89-5.52 1.01.83 2.17 1.48 3.43 1.92l-3.33 7.73c-.21-.05-.43-.09-.67-.09-1.54 0-2.8 1.25-2.8 2.8 0 1.54 1.25 2.8 2.8 2.8 1.54 0 2.8-1.25 2.8-2.8 0-1.02-.55-1.9-1.36-2.39l3.36-7.81c.88.23 1.8.36 2.75.36.74 0 1.46-.08 2.15-.21.33 2.65.56 4.39.71 5.54a3.1 3.1 0 00-2.37 3.01c0 1.72 1.39 3.11 3.11 3.11a3.107 3.107 0 00.1-6.21c-.21-1.58-.49-3.79-.73-5.66.71-.2 1.39-.47 2.03-.8l4.83 9.6c-.44.33-.73.86-.73 1.45a1.83 1.83 0 101.49-1.8l-4.87-9.67a11.08 11.08 0 002.79-2.45l7.96 6.6c-.15.26-.24.56-.24.88a1.83 1.83 0 101.83-1.83c-.38 0-.74.12-1.03.32l-8.01-6.65c.31-.46.58-.94.83-1.44l5.71 2.7a1.408 1.408 0 001.37 1.74c.78 0 1.41-.63 1.41-1.41a1.408 1.408 0 00-2.35-1.05l-5.8-2.74c.44-1.13.7-2.35.74-3.63l7.18-.5c.39 1.54 1.78 2.69 3.44 2.69 1.97 0 3.56-1.6 3.56-3.56a3.547 3.547 0 00-3.55-3.56zm-28.54.98c-2.23 4.39-.7 8.84-.7 8.84-.63-.7-2.71-4.94-.51-9.26 2.67-5.14 7.89-4.52 7.89-4.52s-4.45.55-6.68 4.94z"/></g><g><circle class="st1" cx="366.63" cy="335.32" r="33.76"/><path class="st14" d="M388.22 342.42h-14.48v14.48h-14.22v-14.48h-14.48V328.2h14.48v-14.48h14.22v14.48h14.48v14.22z"/></g><g><circle class="st1" cx="50.4" cy="279.85" r="33.76"/></g><path class="st16" d="M252.97 76.12L284.32 82c1.18.22 1.96 1.36 1.75 2.54a2.194 2.194 0 01-2.54 1.75l-31.35-5.88a2.194 2.194 0 01-1.75-2.54 2.169 2.169 0 012.54-1.75z"/><circle class="st16" cx="244.79" cy="76.84" r="2.46"/><g fill="#2491ff" stroke-width=".25" stroke-miterlimit="10"><path d="M43.74 297.81c-.19.22-.36.45-.52.69.18-.24.35-.47.52-.69z" stroke="#a1d3ff"/><path d="M74.92 272.18c-1.5-3.55-3.63-5.62-5.68-6.83-.6-.12-1.12-.18-1.54-.21-.66-.05-1.06-.01-1.06-.01-.01-.01-.02-.02-.03-.02-.58-.49-1.15-.92-1.73-1.3-.34-.05-.65-.08-.91-.1.29.46.58 1.01.62 1.47.02.24-.16.45-.4.47-.04 0-.08 0-.12-.01a.436.436 0 01-.35-.39c-.03-.4-.46-1.09-.84-1.58-.85-.73-1.71-1.32-2.55-1.79-4.9-2.76-9.44-1.57-11.44-.78.1.04.21.09.32.14.01.01.02.01.04.02.82.37 1.78.91 2.53 1.65.22.22.43.45.6.7.14.2.09.47-.1.61-.1.07-.22.09-.34.07a.412.412 0 01-.27-.18 4.03 4.03 0 00-.26-.32c-.02-.03-.05-.05-.07-.08a3.19 3.19 0 00-.26-.26l-.03-.03c-.23-.21-.48-.4-.73-.57-.72-.49-1.51-.84-2.11-1.07-.01-.01-.03-.01-.04-.02-.08-.03-.15-.06-.22-.08-.02-.01-.04-.01-.05-.02-.08-.03-.15-.05-.22-.08-9.05-1.77-11.99 4.79-12.22 5.33l-.06.15-.03.09c-.01.02-.02.05-.02.07-.01.04-.03.09-.04.13 0 .01-.01.03-.01.04-.01.05-.03.1-.04.16 0 .01 0 .01-.01.02-.02.06-.03.12-.04.18 0 0 0 0 0 0-.15.69-.19 1.51.12 2.28.02.04.03.08.05.12.1.22 0 .48-.21.58-.08.03-.16.05-.23.04a.495.495 0 01-.13-.04s-.01 0-.01-.01a.444.444 0 01-.11-.08l-.05-.05c-.02-.02-.03-.05-.05-.08-.54-1.18-.39-2.42-.12-3.36-5.07 1.34-5.85 6.42-5.94 8.68.7-.5 1.61-1.01 2.65-1.26.23-.06.47.09.52.32.06.23-.09.47-.32.52-1.48.35-2.69 1.34-3.28 1.89-.75.8-2.14 2.88-1.46 6.96.67 4 3.46 5.27 4.91 5.67v-.28-.07c0-.07 0-.14.01-.21v-.03c.01-.08.01-.16.02-.23v-.03l.03-.23s0 0 0 0c.01-.07.02-.15.04-.22 0-.02.01-.05.01-.07l.03-.15c0-.02.01-.04.01-.07.01-.06.03-.12.04-.18v-.01c.02-.06.03-.12.05-.18.01-.02.01-.04.02-.06.01-.04.02-.08.04-.12.01-.02.01-.03.02-.05.02-.05.03-.1.05-.14v-.01c.02-.05.03-.09.05-.13 0-.01.01-.03.01-.04l.03-.09c0-.01.01-.02.01-.03.03-.07.05-.13.07-.17 0-.01 0-.01.01-.02.01-.02.01-.03.02-.04v-.01c.01-.01.01-.02.01-.02a.435.435 0 11.79.37s0 .01-.01.02c0 .01-.01.02-.02.04 0 0 0 0 0 0-.1.24-.48 1.22-.48 2.32 0 0 0 0 0 0 .99.93 2.1 1.38 2.85 1.58.53.15.89.17.89.17v.01c.51 2.12 1.74 3.53 3.06 4.46-.04.05-.08.1-.11.15.04-.05.08-.1.12-.16.46-.6.9-1.1 1.3-1.52 0 0 0 0 0 0s0 0 0 0c.08-.09.16-.17.24-.24l.04-.04c.76-.75 1.37-1.17 1.74-1.4 0 0 0 0 0 0 .12-.07.21-.12.28-.16.01 0 .01-.01.02-.01.02-.01.03-.02.04-.02.01-.01.02-.01.03-.01.01 0 .02-.01.02-.01.01-.01.02-.01.02-.01.22-.09.48.02.57.24.09.22-.02.47-.24.57-.03.01-1.38.61-3.23 2.95-.01.02-.03.04-.05.06.01-.01.02-.03.03-.04 0 0 0 0 0 0-.03.04-.06.09-.09.13-1.83 2.78-1.66 5.74-1.66 5.74s.61.19 1.63-.02c.46-.09 1-.27 1.61-.58 0 0 .71-1.74 2.12-3.87.05-.07.09-.14.14-.22 1.43-2.12 3.53-4.59 6.29-6.12.01-.01.02-.02.03-.02 0 0 0 0 0 0s0 0 0 0c.26-.23.8-.57 1.34-.89 0 0 0 0 0 0 .07-.04.13-.08.19-.11l.01-.01c.06-.04.12-.07.18-.1.01-.01.02-.01.03-.02.06-.03.11-.06.16-.09.01-.01.03-.02.04-.02.05-.03.1-.05.14-.08.02-.01.04-.02.05-.03.04-.02.08-.05.12-.07l.06-.03c.03-.02.07-.04.1-.06l.06-.03c.02-.01.05-.03.07-.04.04-.02.08-.05.12-.06.21-.11.48-.04.59.17.11.21.04.48-.17.59-.78.42-1.66.94-2.16 1.27 6.32 2.27 10.67-1.29 12.22-2.9-1.78-.63-3.05-1.87-3.12-1.94a.429.429 0 010-.61.44.44 0 01.62 0c.02.02 1.37 1.33 3.14 1.84 0-.01.01-.01.01-.01 7.23.19 14.9-6.8 11.02-15.99zm-10.75-4.31c.23.07.36.32.28.55-.07.21-.28.34-.5.29-.02 0-.03-.01-.05-.01-3.88-1.24-4.84-3.69-5.06-4.68-.09-.22.02-.47.24-.56.22-.09.48.02.57.25.01.01.02.05.03.12.2.85 1.03 2.94 4.49 4.04zm-9.72 2.44c.2-.19.42-.36.65-.52 2.02-1.38 4.24-.83 4.33-.81.23.06.37.3.31.53-.06.23-.29.38-.53.31-.02-.01-1.95-.47-3.64.69-1.4.96-2.27 2.73-2.59 5.28-.03.24-.25.41-.49.38h-.03a.434.434 0 01-.35-.48c.25-1.99.83-3.56 1.71-4.7-2.29-1.01-4.27-1.61-5.94-1.79-.05.01-.1.01-.15 0h-.01c-.02 0-.03-.01-.04-.02-2.78-.24-4.68.71-5.66 2.85-.11.24-.18.39-.36.47a.432.432 0 01-.57-.22.443.443 0 01.08-.48l.07-.14c1.24-2.69 3.58-3.51 6.23-3.35.31-2.3-1.72-3.42-1.81-3.47a.441.441 0 01-.18-.59c.11-.21.37-.29.59-.18.03.01 2.65 1.44 2.27 4.32 2.02.29 4.17 1.05 6.11 1.92zm-13.47 8.25l-.22-.03c-.54.8-2.29 3.66-1.56 6.11.42 1.41 1.6 2.48 3.52 3.18.23.08.34.33.26.56a.44.44 0 01-.49.28c-.02 0-.04-.01-.07-.02-.9-.33-1.65-.73-2.27-1.21-.39.67-1.27 2.38-1.39 4.22-.02.24-.22.42-.46.41-.02 0-.04 0-.06-.01a.438.438 0 01-.35-.46c.14-2.21 1.23-4.16 1.6-4.76-.53-.57-.91-1.21-1.13-1.94-.27-.91-.26-1.85-.09-2.74-2.06-1.53-3.66-2.07-4.63-1.54-1.3.71-1.41 3.26-1.34 4.18.02.24-.16.45-.4.47-.04 0-.08 0-.12-.01a.436.436 0 01-.35-.39c-.01-.16-.27-3.9 1.79-5.01 1.25-.68 3.02-.21 5.26 1.39.39-1.29 1.02-2.38 1.4-2.98-2.02-.91-3.05-3.39-3.1-3.51-.09-.22.02-.48.24-.57.22-.09.48.02.57.24.01.03 1.26 3.02 3.48 3.28 1.61.19 3.39-1.05 5.31-3.71.14-.2.41-.24.61-.1.2.14.24.41.1.61-2.1 2.93-4.16 4.29-6.11 4.06zm7.3 5.92c-.13.14-3.09 3.43-.61 6.55.15.19.12.46-.07.61a.46.46 0 01-.36.09.426.426 0 01-.26-.16c-2.95-3.71.62-7.65.65-7.69.16-.18.44-.19.62-.02.19.17.2.45.03.62zm19.59-2.06c-1.2.14-2.27.12-3.18-.06-1.01-.2-1.84-.59-2.49-1.18a4.168 4.168 0 01-1.25-2.18c-.07.04-.13.08-.2.12-1.42.77-2.96.83-4.32.88-1.75.07-3.26.13-4.2 1.57-.84 1.29-1.03 2.6-.5 3.42.41.63 1.22.89 2.22.72 2.43-.41 3.28-2.41 3.32-2.49.09-.22.35-.33.57-.24.22.09.33.34.24.57-.04.1-1.06 2.52-3.98 3.02-.5.09-.97.08-1.4 0-.72-.14-1.31-.52-1.69-1.1-.61-.93-.59-2.22.04-3.55-.77-.4-2.68-1.22-4.3-.63-1.05.38-1.81 1.31-2.29 2.75-.07.21-.28.33-.5.29-.02 0-.03-.01-.05-.01a.437.437 0 01-.28-.55c.56-1.72 1.51-2.83 2.82-3.3 1.97-.72 4.15.23 5.02.69a.21.21 0 01.04-.06c1.18-1.82 3.07-1.89 4.9-1.96 1.33-.05 2.7-.1 3.94-.78 2.74-1.48 1.65-4.75 1.6-4.89-.08-.23.04-.47.27-.55.23-.08.47.04.55.27.01.04 1.08 3.22-1.03 5.23.04.39.21 1.37 1.06 2.14 1.03.93 2.71 1.28 4.97 1.01.24-.03.45.14.48.38.03.22-.14.44-.38.47zm4.65-9.21c-.13.2-.39.27-.6.14-.02-.01-2.17-1.3-3.64-.32.71 1.28.92 2.86.6 4.71-.04.24-.27.4-.5.35h-.01a.436.436 0 01-.34-.5c.33-1.93.05-3.5-.85-4.68-1.42-1.87-3.92-2.13-3.94-2.13a.444.444 0 01-.39-.48c.02-.24.24-.41.48-.39.12.01 2.83.3 4.49 2.39 1.92-1.3 4.46.23 4.58.3.18.14.24.41.12.61z" stroke="#cfe8ff"/></g></svg>